<?xml version="1.0" encoding="utf-8" standalone="no"?>
<!DOCTYPE svg PUBLIC "-//W3C//DTD SVG 1.1//EN"
  "http://www.w3.org/Graphics/SVG/1.1/DTD/svg11.dtd">
<svg xmlns:xlink="http://www.w3.org/1999/xlink" width="444.821875pt" height="255.558281pt" viewBox="0 0 444.821875 255.558281" xmlns="http://www.w3.org/2000/svg" version="1.1">
 <metadata>
  <rdf:RDF xmlns:dc="http://purl.org/dc/elements/1.1/" xmlns:cc="http://creativecommons.org/ns#" xmlns:rdf="http://www.w3.org/1999/02/22-rdf-syntax-ns#">
   <cc:Work>
    <dc:type rdf:resource="http://purl.org/dc/dcmitype/StillImage"/>
    <dc:date>2026-05-04T14:28:47.251455</dc:date>
    <dc:format>image/svg+xml</dc:format>
    <dc:creator>
     <cc:Agent>
      <dc:title>Matplotlib v3.10.9, https://matplotlib.org/</dc:title>
     </cc:Agent>
    </dc:creator>
   </cc:Work>
  </rdf:RDF>
 </metadata>
 <defs>
  <style type="text/css">*{stroke-linejoin: round; stroke-linecap: butt}</style>
 </defs>
 <g id="figure_1">
  <g id="patch_1">
   <path d="M 0 255.558281 
L 444.821875 255.558281 
L 444.821875 0 
L 0 0 
z
" style="fill: #ffffff"/>
  </g>
  <g id="axes_1">
   <g id="patch_2">
    <path d="M 60.410938 202.998281 
L 395.210938 202.998281 
L 395.210938 21.558281 
L 60.410938 21.558281 
z
" style="fill: #ffffff"/>
   </g>
   <g id="matplotlib.axis_1">
    <g id="xtick_1">
     <g id="line2d_1">
      <path d="M 143.265483 202.998281 
L 143.265483 21.558281 
" clip-path="url(#p87757a149d)" style="fill: none; stroke: #b0b0b0; stroke-opacity: 0.25; stroke-width: 0.5; stroke-linecap: square"/>
     </g>
     <g id="line2d_2">
      <defs>
       <path id="m83108fc7b3" d="M 0 0 
L 0 3.5 
" style="stroke: #000000; stroke-width: 0.8"/>
      </defs>
      <g>
       <use xlink:href="#m83108fc7b3" x="143.265483" y="202.998281" style="stroke: #000000; stroke-width: 0.8"/>
      </g>
     </g>
     <g id="text_1">
      <!-- DoPri5 (dense output enabled) -->
      <g transform="translate(73.138608 216.836875) scale(0.09 -0.09)">
       <defs>
        <path id="DejaVuSerif-44" d="M 1581 331 
L 2163 331 
Q 3072 331 3558 850 
Q 4044 1369 4044 2338 
Q 4044 3306 3559 3818 
Q 3075 4331 2163 4331 
L 1581 4331 
L 1581 331 
z
M 353 0 
L 353 331 
L 947 331 
L 947 4331 
L 353 4331 
L 353 4666 
L 2209 4666 
Q 3416 4666 4089 4050 
Q 4763 3434 4763 2338 
Q 4763 1238 4088 619 
Q 3413 0 2209 0 
L 353 0 
z
" transform="scale(0.015625)"/>
        <path id="DejaVuSerif-6f" d="M 1925 219 
Q 2388 219 2623 584 
Q 2859 950 2859 1663 
Q 2859 2375 2623 2739 
Q 2388 3103 1925 3103 
Q 1463 3103 1227 2739 
Q 991 2375 991 1663 
Q 991 950 1228 584 
Q 1466 219 1925 219 
z
M 1925 -91 
Q 1200 -91 759 389 
Q 319 869 319 1663 
Q 319 2456 758 2934 
Q 1197 3413 1925 3413 
Q 2653 3413 3092 2934 
Q 3531 2456 3531 1663 
Q 3531 869 3092 389 
Q 2653 -91 1925 -91 
z
" transform="scale(0.015625)"/>
        <path id="DejaVuSerif-50" d="M 1581 2375 
L 2406 2375 
Q 2872 2375 3115 2626 
Q 3359 2878 3359 3353 
Q 3359 3831 3115 4081 
Q 2872 4331 2406 4331 
L 1581 4331 
L 1581 2375 
z
M 353 0 
L 353 331 
L 947 331 
L 947 4331 
L 353 4331 
L 353 4666 
L 2559 4666 
Q 3259 4666 3668 4311 
Q 4078 3956 4078 3353 
Q 4078 2753 3668 2397 
Q 3259 2041 2559 2041 
L 1581 2041 
L 1581 331 
L 2303 331 
L 2303 0 
L 353 0 
z
" transform="scale(0.015625)"/>
        <path id="DejaVuSerif-72" d="M 3059 3328 
L 3059 2497 
L 2728 2497 
Q 2713 2744 2591 2866 
Q 2469 2988 2234 2988 
Q 1809 2988 1582 2694 
Q 1356 2400 1356 1850 
L 1356 331 
L 2022 331 
L 2022 0 
L 263 0 
L 263 331 
L 781 331 
L 781 2994 
L 231 2994 
L 231 3322 
L 1356 3322 
L 1356 2731 
Q 1525 3078 1790 3245 
Q 2056 3413 2438 3413 
Q 2578 3413 2733 3391 
Q 2888 3369 3059 3328 
z
" transform="scale(0.015625)"/>
        <path id="DejaVuSerif-69" d="M 622 4353 
Q 622 4497 726 4603 
Q 831 4709 978 4709 
Q 1122 4709 1226 4603 
Q 1331 4497 1331 4353 
Q 1331 4206 1228 4103 
Q 1125 4000 978 4000 
Q 831 4000 726 4103 
Q 622 4206 622 4353 
z
M 1356 331 
L 1900 331 
L 1900 0 
L 231 0 
L 231 331 
L 781 331 
L 781 2988 
L 231 2988 
L 231 3322 
L 1356 3322 
L 1356 331 
z
" transform="scale(0.015625)"/>
        <path id="DejaVuSerif-35" d="M 3219 4666 
L 3219 4153 
L 1081 4153 
L 1081 2816 
Q 1244 2928 1461 2984 
Q 1678 3041 1947 3041 
Q 2703 3041 3140 2622 
Q 3578 2203 3578 1478 
Q 3578 738 3136 323 
Q 2694 -91 1894 -91 
Q 1572 -91 1234 -12 
Q 897 66 544 225 
L 544 1131 
L 897 1131 
Q 925 688 1179 453 
Q 1434 219 1894 219 
Q 2388 219 2653 544 
Q 2919 869 2919 1478 
Q 2919 2084 2655 2407 
Q 2391 2731 1894 2731 
Q 1613 2731 1398 2631 
Q 1184 2531 1019 2322 
L 750 2322 
L 750 4666 
L 3219 4666 
z
" transform="scale(0.015625)"/>
        <path id="DejaVuSerif-20" transform="scale(0.015625)"/>
        <path id="DejaVuSerif-28" d="M 2041 -997 
Q 1281 -656 893 83 
Q 506 822 506 1931 
Q 506 3044 893 3783 
Q 1281 4522 2041 4863 
L 2041 4556 
Q 1559 4225 1350 3623 
Q 1141 3022 1141 1931 
Q 1141 844 1350 242 
Q 1559 -359 2041 -691 
L 2041 -997 
z
" transform="scale(0.015625)"/>
        <path id="DejaVuSerif-64" d="M 3359 331 
L 3909 331 
L 3909 0 
L 2784 0 
L 2784 519 
Q 2616 206 2355 57 
Q 2094 -91 1709 -91 
Q 1097 -91 708 395 
Q 319 881 319 1663 
Q 319 2444 706 2928 
Q 1094 3413 1709 3413 
Q 2094 3413 2355 3264 
Q 2616 3116 2784 2803 
L 2784 4531 
L 2241 4531 
L 2241 4863 
L 3359 4863 
L 3359 331 
z
M 2784 1497 
L 2784 1825 
Q 2784 2422 2554 2737 
Q 2325 3053 1888 3053 
Q 1444 3053 1217 2703 
Q 991 2353 991 1663 
Q 991 975 1217 622 
Q 1444 269 1888 269 
Q 2325 269 2554 583 
Q 2784 897 2784 1497 
z
" transform="scale(0.015625)"/>
        <path id="DejaVuSerif-65" d="M 3469 1600 
L 991 1600 
L 991 1575 
Q 991 903 1244 561 
Q 1497 219 1991 219 
Q 2369 219 2611 417 
Q 2853 616 2950 1006 
L 3413 1006 
Q 3275 459 2904 184 
Q 2534 -91 1931 -91 
Q 1203 -91 761 389 
Q 319 869 319 1663 
Q 319 2450 753 2931 
Q 1188 3413 1894 3413 
Q 2647 3413 3050 2948 
Q 3453 2484 3469 1600 
z
M 2791 1931 
Q 2772 2513 2545 2808 
Q 2319 3103 1894 3103 
Q 1497 3103 1269 2806 
Q 1041 2509 991 1931 
L 2791 1931 
z
" transform="scale(0.015625)"/>
        <path id="DejaVuSerif-6e" d="M 263 0 
L 263 331 
L 781 331 
L 781 2988 
L 231 2988 
L 231 3322 
L 1356 3322 
L 1356 2731 
Q 1516 3069 1770 3241 
Q 2025 3413 2363 3413 
Q 2913 3413 3172 3097 
Q 3431 2781 3431 2113 
L 3431 331 
L 3944 331 
L 3944 0 
L 2356 0 
L 2356 331 
L 2853 331 
L 2853 1931 
Q 2853 2541 2703 2767 
Q 2553 2994 2175 2994 
Q 1775 2994 1565 2701 
Q 1356 2409 1356 1850 
L 1356 331 
L 1856 331 
L 1856 0 
L 263 0 
z
" transform="scale(0.015625)"/>
        <path id="DejaVuSerif-73" d="M 359 184 
L 359 959 
L 691 959 
Q 703 588 923 403 
Q 1144 219 1575 219 
Q 1963 219 2166 364 
Q 2369 509 2369 788 
Q 2369 1006 2220 1140 
Q 2072 1275 1594 1428 
L 1178 1569 
Q 750 1706 558 1912 
Q 366 2119 366 2438 
Q 366 2894 700 3153 
Q 1034 3413 1625 3413 
Q 1888 3413 2178 3344 
Q 2469 3275 2778 3144 
L 2778 2419 
L 2447 2419 
Q 2434 2741 2221 2922 
Q 2009 3103 1644 3103 
Q 1281 3103 1095 2975 
Q 909 2847 909 2591 
Q 909 2381 1050 2254 
Q 1191 2128 1613 1997 
L 2069 1856 
Q 2541 1709 2748 1489 
Q 2956 1269 2956 922 
Q 2956 450 2595 179 
Q 2234 -91 1600 -91 
Q 1278 -91 972 -22 
Q 666 47 359 184 
z
" transform="scale(0.015625)"/>
        <path id="DejaVuSerif-75" d="M 2266 3322 
L 3341 3322 
L 3341 331 
L 3884 331 
L 3884 0 
L 2766 0 
L 2766 588 
Q 2606 256 2353 82 
Q 2100 -91 1766 -91 
Q 1213 -91 952 223 
Q 691 538 691 1209 
L 691 2988 
L 172 2988 
L 172 3322 
L 1269 3322 
L 1269 1388 
Q 1269 781 1417 556 
Q 1566 331 1947 331 
Q 2347 331 2556 625 
Q 2766 919 2766 1478 
L 2766 2988 
L 2266 2988 
L 2266 3322 
z
" transform="scale(0.015625)"/>
        <path id="DejaVuSerif-74" d="M 691 2988 
L 184 2988 
L 184 3322 
L 691 3322 
L 691 4353 
L 1269 4353 
L 1269 3322 
L 2350 3322 
L 2350 2988 
L 1269 2988 
L 1269 878 
Q 1269 456 1350 337 
Q 1431 219 1650 219 
Q 1875 219 1978 351 
Q 2081 484 2088 781 
L 2522 781 
Q 2497 328 2275 118 
Q 2053 -91 1600 -91 
Q 1103 -91 897 129 
Q 691 350 691 878 
L 691 2988 
z
" transform="scale(0.015625)"/>
        <path id="DejaVuSerif-70" d="M 1313 1825 
L 1313 1497 
Q 1313 897 1542 583 
Q 1772 269 2209 269 
Q 2650 269 2876 622 
Q 3103 975 3103 1663 
Q 3103 2353 2876 2703 
Q 2650 3053 2209 3053 
Q 1772 3053 1542 2737 
Q 1313 2422 1313 1825 
z
M 738 2988 
L 184 2988 
L 184 3322 
L 1313 3322 
L 1313 2803 
Q 1481 3116 1742 3264 
Q 2003 3413 2388 3413 
Q 3000 3413 3387 2928 
Q 3775 2444 3775 1663 
Q 3775 881 3387 395 
Q 3000 -91 2388 -91 
Q 2003 -91 1742 57 
Q 1481 206 1313 519 
L 1313 -997 
L 1856 -997 
L 1856 -1331 
L 184 -1331 
L 184 -997 
L 738 -997 
L 738 2988 
z
" transform="scale(0.015625)"/>
        <path id="DejaVuSerif-61" d="M 2547 1044 
L 2547 1747 
L 1806 1747 
Q 1378 1747 1168 1562 
Q 959 1378 959 997 
Q 959 650 1171 447 
Q 1384 244 1747 244 
Q 2106 244 2326 466 
Q 2547 688 2547 1044 
z
M 3122 2075 
L 3122 331 
L 3634 331 
L 3634 0 
L 2547 0 
L 2547 359 
Q 2356 128 2106 18 
Q 1856 -91 1522 -91 
Q 969 -91 644 203 
Q 319 497 319 997 
Q 319 1513 691 1797 
Q 1063 2081 1741 2081 
L 2547 2081 
L 2547 2309 
Q 2547 2688 2317 2895 
Q 2088 3103 1672 3103 
Q 1328 3103 1125 2947 
Q 922 2791 872 2484 
L 575 2484 
L 575 3156 
Q 875 3284 1158 3348 
Q 1441 3413 1709 3413 
Q 2400 3413 2761 3070 
Q 3122 2728 3122 2075 
z
" transform="scale(0.015625)"/>
        <path id="DejaVuSerif-62" d="M 738 331 
L 738 4531 
L 184 4531 
L 184 4863 
L 1313 4863 
L 1313 2803 
Q 1481 3116 1742 3264 
Q 2003 3413 2388 3413 
Q 3000 3413 3387 2928 
Q 3775 2444 3775 1663 
Q 3775 881 3387 395 
Q 3000 -91 2388 -91 
Q 2003 -91 1742 57 
Q 1481 206 1313 519 
L 1313 0 
L 184 0 
L 184 331 
L 738 331 
z
M 1313 1497 
Q 1313 897 1542 583 
Q 1772 269 2209 269 
Q 2650 269 2876 622 
Q 3103 975 3103 1663 
Q 3103 2353 2876 2703 
Q 2650 3053 2209 3053 
Q 1772 3053 1542 2737 
Q 1313 2422 1313 1825 
L 1313 1497 
z
" transform="scale(0.015625)"/>
        <path id="DejaVuSerif-6c" d="M 1313 331 
L 1856 331 
L 1856 0 
L 184 0 
L 184 331 
L 738 331 
L 738 4531 
L 184 4531 
L 184 4863 
L 1313 4863 
L 1313 331 
z
" transform="scale(0.015625)"/>
        <path id="DejaVuSerif-29" d="M 453 -997 
L 453 -691 
Q 934 -359 1145 242 
Q 1356 844 1356 1931 
Q 1356 3022 1145 3623 
Q 934 4225 453 4556 
L 453 4863 
Q 1216 4522 1603 3783 
Q 1991 3044 1991 1931 
Q 1991 822 1603 83 
Q 1216 -656 453 -997 
z
" transform="scale(0.015625)"/>
       </defs>
       <use xlink:href="#DejaVuSerif-44"/>
       <use xlink:href="#DejaVuSerif-6f" transform="translate(80.175781 0)"/>
       <use xlink:href="#DejaVuSerif-50" transform="translate(140.380859 0)"/>
       <use xlink:href="#DejaVuSerif-72" transform="translate(207.666016 0)"/>
       <use xlink:href="#DejaVuSerif-69" transform="translate(255.46875 0)"/>
       <use xlink:href="#DejaVuSerif-35" transform="translate(287.451172 0)"/>
       <use xlink:href="#DejaVuSerif-20" transform="translate(351.074219 0)"/>
       <use xlink:href="#DejaVuSerif-28" transform="translate(382.861328 0)"/>
       <use xlink:href="#DejaVuSerif-64" transform="translate(421.875 0)"/>
       <use xlink:href="#DejaVuSerif-65" transform="translate(485.888672 0)"/>
       <use xlink:href="#DejaVuSerif-6e" transform="translate(545.068359 0)"/>
       <use xlink:href="#DejaVuSerif-73" transform="translate(609.472656 0)"/>
       <use xlink:href="#DejaVuSerif-65" transform="translate(660.791016 0)"/>
       <use xlink:href="#DejaVuSerif-20" transform="translate(719.970703 0)"/>
       <use xlink:href="#DejaVuSerif-6f" transform="translate(751.757812 0)"/>
       <use xlink:href="#DejaVuSerif-75" transform="translate(811.962891 0)"/>
       <use xlink:href="#DejaVuSerif-74" transform="translate(876.367188 0)"/>
       <use xlink:href="#DejaVuSerif-70" transform="translate(916.552734 0)"/>
       <use xlink:href="#DejaVuSerif-75" transform="translate(980.566406 0)"/>
       <use xlink:href="#DejaVuSerif-74" transform="translate(1044.970703 0)"/>
       <use xlink:href="#DejaVuSerif-20" transform="translate(1085.15625 0)"/>
       <use xlink:href="#DejaVuSerif-65" transform="translate(1116.943359 0)"/>
       <use xlink:href="#DejaVuSerif-6e" transform="translate(1176.123047 0)"/>
       <use xlink:href="#DejaVuSerif-61" transform="translate(1240.527344 0)"/>
       <use xlink:href="#DejaVuSerif-62" transform="translate(1300.146484 0)"/>
       <use xlink:href="#DejaVuSerif-6c" transform="translate(1364.160156 0)"/>
       <use xlink:href="#DejaVuSerif-65" transform="translate(1396.142578 0)"/>
       <use xlink:href="#DejaVuSerif-64" transform="translate(1455.322266 0)"/>
       <use xlink:href="#DejaVuSerif-29" transform="translate(1519.335938 0)"/>
      </g>
     </g>
    </g>
    <g id="xtick_2">
     <g id="line2d_3">
      <path d="M 312.356392 202.998281 
L 312.356392 21.558281 
" clip-path="url(#p87757a149d)" style="fill: none; stroke: #b0b0b0; stroke-opacity: 0.25; stroke-width: 0.5; stroke-linecap: square"/>
     </g>
     <g id="line2d_4">
      <g>
       <use xlink:href="#m83108fc7b3" x="312.356392" y="202.998281" style="stroke: #000000; stroke-width: 0.8"/>
      </g>
     </g>
     <g id="text_2">
      <!-- DoPri5 (no dense output) -->
      <g transform="translate(254.73108 216.836875) scale(0.09 -0.09)">
       <use xlink:href="#DejaVuSerif-44"/>
       <use xlink:href="#DejaVuSerif-6f" transform="translate(80.175781 0)"/>
       <use xlink:href="#DejaVuSerif-50" transform="translate(140.380859 0)"/>
       <use xlink:href="#DejaVuSerif-72" transform="translate(207.666016 0)"/>
       <use xlink:href="#DejaVuSerif-69" transform="translate(255.46875 0)"/>
       <use xlink:href="#DejaVuSerif-35" transform="translate(287.451172 0)"/>
       <use xlink:href="#DejaVuSerif-20" transform="translate(351.074219 0)"/>
       <use xlink:href="#DejaVuSerif-28" transform="translate(382.861328 0)"/>
       <use xlink:href="#DejaVuSerif-6e" transform="translate(421.875 0)"/>
       <use xlink:href="#DejaVuSerif-6f" transform="translate(486.279297 0)"/>
       <use xlink:href="#DejaVuSerif-20" transform="translate(546.484375 0)"/>
       <use xlink:href="#DejaVuSerif-64" transform="translate(578.271484 0)"/>
       <use xlink:href="#DejaVuSerif-65" transform="translate(642.285156 0)"/>
       <use xlink:href="#DejaVuSerif-6e" transform="translate(701.464844 0)"/>
       <use xlink:href="#DejaVuSerif-73" transform="translate(765.869141 0)"/>
       <use xlink:href="#DejaVuSerif-65" transform="translate(817.1875 0)"/>
       <use xlink:href="#DejaVuSerif-20" transform="translate(876.367188 0)"/>
       <use xlink:href="#DejaVuSerif-6f" transform="translate(908.154297 0)"/>
       <use xlink:href="#DejaVuSerif-75" transform="translate(968.359375 0)"/>
       <use xlink:href="#DejaVuSerif-74" transform="translate(1032.763672 0)"/>
       <use xlink:href="#DejaVuSerif-70" transform="translate(1072.949219 0)"/>
       <use xlink:href="#DejaVuSerif-75" transform="translate(1136.962891 0)"/>
       <use xlink:href="#DejaVuSerif-74" transform="translate(1201.367188 0)"/>
       <use xlink:href="#DejaVuSerif-29" transform="translate(1241.552734 0)"/>
      </g>
     </g>
    </g>
   </g>
   <g id="matplotlib.axis_2">
    <g id="ytick_1">
     <g id="line2d_5">
      <path d="M 60.410938 202.998281 
L 395.210938 202.998281 
" clip-path="url(#p87757a149d)" style="fill: none; stroke-dasharray: 0.5,0.825; stroke-dashoffset: 0; stroke: #b0b0b0; stroke-opacity: 0.4; stroke-width: 0.5"/>
     </g>
     <g id="line2d_6">
      <defs>
       <path id="mbcd2ecc31f" d="M 0 0 
L -3.5 0 
" style="stroke: #000000; stroke-width: 0.8"/>
      </defs>
      <g>
       <use xlink:href="#mbcd2ecc31f" x="60.410938" y="202.998281" style="stroke: #000000; stroke-width: 0.8"/>
      </g>
     </g>
     <g id="text_3">
      <!-- 0 -->
      <g transform="translate(47.684688 206.417578) scale(0.09 -0.09)">
       <defs>
        <path id="DejaVuSerif-30" d="M 2034 219 
Q 2513 219 2750 744 
Q 2988 1269 2988 2328 
Q 2988 3391 2750 3916 
Q 2513 4441 2034 4441 
Q 1556 4441 1318 3916 
Q 1081 3391 1081 2328 
Q 1081 1269 1318 744 
Q 1556 219 2034 219 
z
M 2034 -91 
Q 1275 -91 848 546 
Q 422 1184 422 2328 
Q 422 3475 848 4112 
Q 1275 4750 2034 4750 
Q 2797 4750 3222 4112 
Q 3647 3475 3647 2328 
Q 3647 1184 3222 546 
Q 2797 -91 2034 -91 
z
" transform="scale(0.015625)"/>
       </defs>
       <use xlink:href="#DejaVuSerif-30"/>
      </g>
     </g>
    </g>
    <g id="ytick_2">
     <g id="line2d_7">
      <path d="M 60.410938 181.275405 
L 395.210938 181.275405 
" clip-path="url(#p87757a149d)" style="fill: none; stroke-dasharray: 0.5,0.825; stroke-dashoffset: 0; stroke: #b0b0b0; stroke-opacity: 0.4; stroke-width: 0.5"/>
     </g>
     <g id="line2d_8">
      <g>
       <use xlink:href="#mbcd2ecc31f" x="60.410938" y="181.275405" style="stroke: #000000; stroke-width: 0.8"/>
      </g>
     </g>
     <g id="text_4">
      <!-- 10 -->
      <g transform="translate(41.958438 184.694702) scale(0.09 -0.09)">
       <defs>
        <path id="DejaVuSerif-31" d="M 909 0 
L 909 331 
L 1722 331 
L 1722 4213 
L 781 3603 
L 781 4013 
L 1919 4750 
L 2350 4750 
L 2350 331 
L 3163 331 
L 3163 0 
L 909 0 
z
" transform="scale(0.015625)"/>
       </defs>
       <use xlink:href="#DejaVuSerif-31"/>
       <use xlink:href="#DejaVuSerif-30" transform="translate(63.623047 0)"/>
      </g>
     </g>
    </g>
    <g id="ytick_3">
     <g id="line2d_9">
      <path d="M 60.410938 159.552528 
L 395.210938 159.552528 
" clip-path="url(#p87757a149d)" style="fill: none; stroke-dasharray: 0.5,0.825; stroke-dashoffset: 0; stroke: #b0b0b0; stroke-opacity: 0.4; stroke-width: 0.5"/>
     </g>
     <g id="line2d_10">
      <g>
       <use xlink:href="#mbcd2ecc31f" x="60.410938" y="159.552528" style="stroke: #000000; stroke-width: 0.8"/>
      </g>
     </g>
     <g id="text_5">
      <!-- 20 -->
      <g transform="translate(41.958438 162.971825) scale(0.09 -0.09)">
       <defs>
        <path id="DejaVuSerif-32" d="M 819 3553 
L 469 3553 
L 469 4384 
Q 803 4563 1142 4656 
Q 1481 4750 1806 4750 
Q 2534 4750 2956 4397 
Q 3378 4044 3378 3438 
Q 3378 2753 2422 1800 
Q 2347 1728 2309 1691 
L 1131 513 
L 3078 513 
L 3078 1088 
L 3444 1088 
L 3444 0 
L 434 0 
L 434 341 
L 1850 1753 
Q 2319 2222 2519 2614 
Q 2719 3006 2719 3438 
Q 2719 3909 2473 4175 
Q 2228 4441 1797 4441 
Q 1350 4441 1106 4219 
Q 863 3997 819 3553 
z
" transform="scale(0.015625)"/>
       </defs>
       <use xlink:href="#DejaVuSerif-32"/>
       <use xlink:href="#DejaVuSerif-30" transform="translate(63.623047 0)"/>
      </g>
     </g>
    </g>
    <g id="ytick_4">
     <g id="line2d_11">
      <path d="M 60.410938 137.829652 
L 395.210938 137.829652 
" clip-path="url(#p87757a149d)" style="fill: none; stroke-dasharray: 0.5,0.825; stroke-dashoffset: 0; stroke: #b0b0b0; stroke-opacity: 0.4; stroke-width: 0.5"/>
     </g>
     <g id="line2d_12">
      <g>
       <use xlink:href="#mbcd2ecc31f" x="60.410938" y="137.829652" style="stroke: #000000; stroke-width: 0.8"/>
      </g>
     </g>
     <g id="text_6">
      <!-- 30 -->
      <g transform="translate(41.958438 141.248949) scale(0.09 -0.09)">
       <defs>
        <path id="DejaVuSerif-33" d="M 622 4469 
Q 988 4606 1323 4678 
Q 1659 4750 1953 4750 
Q 2638 4750 3022 4454 
Q 3406 4159 3406 3634 
Q 3406 3213 3140 2930 
Q 2875 2647 2388 2547 
Q 2963 2466 3280 2130 
Q 3597 1794 3597 1259 
Q 3597 606 3158 257 
Q 2719 -91 1894 -91 
Q 1528 -91 1179 -12 
Q 831 66 488 225 
L 488 1131 
L 838 1131 
Q 869 681 1141 450 
Q 1413 219 1906 219 
Q 2384 219 2661 495 
Q 2938 772 2938 1253 
Q 2938 1803 2653 2086 
Q 2369 2369 1819 2369 
L 1522 2369 
L 1522 2688 
L 1678 2688 
Q 2225 2688 2498 2914 
Q 2772 3141 2772 3597 
Q 2772 4006 2547 4223 
Q 2322 4441 1900 4441 
Q 1478 4441 1245 4241 
Q 1013 4041 972 3647 
L 622 3647 
L 622 4469 
z
" transform="scale(0.015625)"/>
       </defs>
       <use xlink:href="#DejaVuSerif-33"/>
       <use xlink:href="#DejaVuSerif-30" transform="translate(63.623047 0)"/>
      </g>
     </g>
    </g>
    <g id="ytick_5">
     <g id="line2d_13">
      <path d="M 60.410938 116.106776 
L 395.210938 116.106776 
" clip-path="url(#p87757a149d)" style="fill: none; stroke-dasharray: 0.5,0.825; stroke-dashoffset: 0; stroke: #b0b0b0; stroke-opacity: 0.4; stroke-width: 0.5"/>
     </g>
     <g id="line2d_14">
      <g>
       <use xlink:href="#mbcd2ecc31f" x="60.410938" y="116.106776" style="stroke: #000000; stroke-width: 0.8"/>
      </g>
     </g>
     <g id="text_7">
      <!-- 40 -->
      <g transform="translate(41.958438 119.526073) scale(0.09 -0.09)">
       <defs>
        <path id="DejaVuSerif-34" d="M 2234 1581 
L 2234 4063 
L 641 1581 
L 2234 1581 
z
M 3609 0 
L 1484 0 
L 1484 331 
L 2234 331 
L 2234 1247 
L 197 1247 
L 197 1588 
L 2241 4750 
L 2859 4750 
L 2859 1581 
L 3750 1581 
L 3750 1247 
L 2859 1247 
L 2859 331 
L 3609 331 
L 3609 0 
z
" transform="scale(0.015625)"/>
       </defs>
       <use xlink:href="#DejaVuSerif-34"/>
       <use xlink:href="#DejaVuSerif-30" transform="translate(63.623047 0)"/>
      </g>
     </g>
    </g>
    <g id="ytick_6">
     <g id="line2d_15">
      <path d="M 60.410938 94.383899 
L 395.210938 94.383899 
" clip-path="url(#p87757a149d)" style="fill: none; stroke-dasharray: 0.5,0.825; stroke-dashoffset: 0; stroke: #b0b0b0; stroke-opacity: 0.4; stroke-width: 0.5"/>
     </g>
     <g id="line2d_16">
      <g>
       <use xlink:href="#mbcd2ecc31f" x="60.410938" y="94.383899" style="stroke: #000000; stroke-width: 0.8"/>
      </g>
     </g>
     <g id="text_8">
      <!-- 50 -->
      <g transform="translate(41.958438 97.803196) scale(0.09 -0.09)">
       <use xlink:href="#DejaVuSerif-35"/>
       <use xlink:href="#DejaVuSerif-30" transform="translate(63.623047 0)"/>
      </g>
     </g>
    </g>
    <g id="ytick_7">
     <g id="line2d_17">
      <path d="M 60.410938 72.661023 
L 395.210938 72.661023 
" clip-path="url(#p87757a149d)" style="fill: none; stroke-dasharray: 0.5,0.825; stroke-dashoffset: 0; stroke: #b0b0b0; stroke-opacity: 0.4; stroke-width: 0.5"/>
     </g>
     <g id="line2d_18">
      <g>
       <use xlink:href="#mbcd2ecc31f" x="60.410938" y="72.661023" style="stroke: #000000; stroke-width: 0.8"/>
      </g>
     </g>
     <g id="text_9">
      <!-- 60 -->
      <g transform="translate(41.958438 76.08032) scale(0.09 -0.09)">
       <defs>
        <path id="DejaVuSerif-36" d="M 2094 219 
Q 2534 219 2771 542 
Q 3009 866 3009 1472 
Q 3009 2078 2771 2401 
Q 2534 2725 2094 2725 
Q 1647 2725 1412 2412 
Q 1178 2100 1178 1509 
Q 1178 888 1415 553 
Q 1653 219 2094 219 
z
M 1075 2569 
Q 1288 2803 1556 2918 
Q 1825 3034 2163 3034 
Q 2859 3034 3264 2615 
Q 3669 2197 3669 1472 
Q 3669 763 3233 336 
Q 2797 -91 2069 -91 
Q 1278 -91 853 498 
Q 428 1088 428 2181 
Q 428 3406 931 4078 
Q 1434 4750 2350 4750 
Q 2597 4750 2869 4703 
Q 3141 4656 3425 4563 
L 3425 3794 
L 3072 3794 
Q 3034 4109 2831 4275 
Q 2628 4441 2284 4441 
Q 1678 4441 1381 3981 
Q 1084 3522 1075 2569 
z
" transform="scale(0.015625)"/>
       </defs>
       <use xlink:href="#DejaVuSerif-36"/>
       <use xlink:href="#DejaVuSerif-30" transform="translate(63.623047 0)"/>
      </g>
     </g>
    </g>
    <g id="ytick_8">
     <g id="line2d_19">
      <path d="M 60.410938 50.938147 
L 395.210938 50.938147 
" clip-path="url(#p87757a149d)" style="fill: none; stroke-dasharray: 0.5,0.825; stroke-dashoffset: 0; stroke: #b0b0b0; stroke-opacity: 0.4; stroke-width: 0.5"/>
     </g>
     <g id="line2d_20">
      <g>
       <use xlink:href="#mbcd2ecc31f" x="60.410938" y="50.938147" style="stroke: #000000; stroke-width: 0.8"/>
      </g>
     </g>
     <g id="text_10">
      <!-- 70 -->
      <g transform="translate(41.958438 54.357443) scale(0.09 -0.09)">
       <defs>
        <path id="DejaVuSerif-37" d="M 3609 4347 
L 1784 0 
L 1319 0 
L 3059 4153 
L 903 4153 
L 903 3578 
L 538 3578 
L 538 4666 
L 3609 4666 
L 3609 4347 
z
" transform="scale(0.015625)"/>
       </defs>
       <use xlink:href="#DejaVuSerif-37"/>
       <use xlink:href="#DejaVuSerif-30" transform="translate(63.623047 0)"/>
      </g>
     </g>
    </g>
    <g id="ytick_9">
     <g id="line2d_21">
      <path d="M 60.410938 29.21527 
L 395.210938 29.21527 
" clip-path="url(#p87757a149d)" style="fill: none; stroke-dasharray: 0.5,0.825; stroke-dashoffset: 0; stroke: #b0b0b0; stroke-opacity: 0.4; stroke-width: 0.5"/>
     </g>
     <g id="line2d_22">
      <g>
       <use xlink:href="#mbcd2ecc31f" x="60.410938" y="29.21527" style="stroke: #000000; stroke-width: 0.8"/>
      </g>
     </g>
     <g id="text_11">
      <!-- 80 -->
      <g transform="translate(41.958438 32.634567) scale(0.09 -0.09)">
       <defs>
        <path id="DejaVuSerif-38" d="M 2981 1275 
Q 2981 1775 2732 2051 
Q 2484 2328 2034 2328 
Q 1584 2328 1336 2051 
Q 1088 1775 1088 1275 
Q 1088 772 1336 495 
Q 1584 219 2034 219 
Q 2484 219 2732 495 
Q 2981 772 2981 1275 
z
M 2853 3541 
Q 2853 3966 2637 4203 
Q 2422 4441 2034 4441 
Q 1650 4441 1433 4203 
Q 1216 3966 1216 3541 
Q 1216 3113 1433 2875 
Q 1650 2638 2034 2638 
Q 2422 2638 2637 2875 
Q 2853 3113 2853 3541 
z
M 2516 2484 
Q 3047 2413 3344 2092 
Q 3641 1772 3641 1275 
Q 3641 619 3225 264 
Q 2809 -91 2034 -91 
Q 1263 -91 845 264 
Q 428 619 428 1275 
Q 428 1772 725 2092 
Q 1022 2413 1556 2484 
Q 1084 2569 832 2842 
Q 581 3116 581 3541 
Q 581 4103 968 4426 
Q 1356 4750 2034 4750 
Q 2713 4750 3100 4426 
Q 3488 4103 3488 3541 
Q 3488 3116 3236 2842 
Q 2984 2569 2516 2484 
z
" transform="scale(0.015625)"/>
       </defs>
       <use xlink:href="#DejaVuSerif-38"/>
       <use xlink:href="#DejaVuSerif-30" transform="translate(63.623047 0)"/>
      </g>
     </g>
    </g>
    <g id="text_12">
     <!-- Wall-clock runtime (µs) -->
     <g transform="translate(35.87875 171.122812) rotate(-90) scale(0.1 -0.1)">
      <defs>
       <path id="DejaVuSerif-57" d="M 4878 0 
L 4366 0 
L 3297 3794 
L 2228 0 
L 1716 0 
L 494 4331 
L 31 4331 
L 31 4666 
L 1734 4666 
L 1734 4331 
L 1153 4331 
L 2125 884 
L 3188 4666 
L 3694 4666 
L 4775 844 
L 5753 4331 
L 5216 4331 
L 5216 4666 
L 6559 4666 
L 6559 4331 
L 6100 4331 
L 4878 0 
z
" transform="scale(0.015625)"/>
       <path id="DejaVuSerif-2d" d="M 281 1959 
L 1881 1959 
L 1881 1472 
L 281 1472 
L 281 1959 
z
" transform="scale(0.015625)"/>
       <path id="DejaVuSerif-63" d="M 3291 997 
Q 3169 466 2822 187 
Q 2475 -91 1925 -91 
Q 1200 -91 759 389 
Q 319 869 319 1663 
Q 319 2459 759 2936 
Q 1200 3413 1925 3413 
Q 2241 3413 2553 3339 
Q 2866 3266 3181 3116 
L 3181 2266 
L 2847 2266 
Q 2781 2703 2561 2903 
Q 2341 3103 1931 3103 
Q 1466 3103 1228 2742 
Q 991 2381 991 1663 
Q 991 944 1227 581 
Q 1463 219 1931 219 
Q 2303 219 2525 412 
Q 2747 606 2828 997 
L 3291 997 
z
" transform="scale(0.015625)"/>
       <path id="DejaVuSerif-6b" d="M 1831 0 
L 219 0 
L 219 331 
L 738 331 
L 738 4531 
L 184 4531 
L 184 4863 
L 1313 4863 
L 1313 1697 
L 2713 2988 
L 2234 2988 
L 2234 3322 
L 3738 3322 
L 3738 2988 
L 3169 2988 
L 2181 2075 
L 3444 331 
L 3922 331 
L 3922 0 
L 2284 0 
L 2284 331 
L 2759 331 
L 1766 1697 
L 1313 1275 
L 1313 331 
L 1831 331 
L 1831 0 
z
" transform="scale(0.015625)"/>
       <path id="DejaVuSerif-6d" d="M 3316 2675 
Q 3481 3041 3739 3227 
Q 3997 3413 4341 3413 
Q 4863 3413 5119 3089 
Q 5375 2766 5375 2113 
L 5375 331 
L 5894 331 
L 5894 0 
L 4300 0 
L 4300 331 
L 4800 331 
L 4800 2047 
Q 4800 2556 4650 2772 
Q 4500 2988 4153 2988 
Q 3769 2988 3567 2697 
Q 3366 2406 3366 1850 
L 3366 331 
L 3866 331 
L 3866 0 
L 2291 0 
L 2291 331 
L 2791 331 
L 2791 2069 
Q 2791 2566 2641 2777 
Q 2491 2988 2144 2988 
Q 1759 2988 1557 2697 
Q 1356 2406 1356 1850 
L 1356 331 
L 1856 331 
L 1856 0 
L 263 0 
L 263 331 
L 781 331 
L 781 2994 
L 231 2994 
L 231 3322 
L 1356 3322 
L 1356 2731 
Q 1516 3063 1762 3238 
Q 2009 3413 2322 3413 
Q 2709 3413 2968 3220 
Q 3228 3028 3316 2675 
z
" transform="scale(0.015625)"/>
       <path id="DejaVuSerif-b5" d="M 2309 3322 
L 3384 3322 
L 3384 325 
L 3928 325 
L 3928 0 
L 2809 0 
L 2809 588 
Q 2647 256 2417 82 
Q 2188 -91 1906 -91 
Q 1728 -91 1581 -34 
Q 1434 22 1313 134 
L 1313 -997 
L 1856 -997 
L 1856 -1331 
L 184 -1331 
L 184 -997 
L 738 -997 
L 738 2988 
L 219 2988 
L 219 3322 
L 1313 3322 
L 1313 1388 
Q 1313 781 1463 556 
Q 1613 331 1991 331 
Q 2391 331 2600 625 
Q 2809 919 2809 1478 
L 2809 2988 
L 2309 2988 
L 2309 3322 
z
" transform="scale(0.015625)"/>
      </defs>
      <use xlink:href="#DejaVuSerif-57"/>
      <use xlink:href="#DejaVuSerif-61" transform="translate(94.033203 0)"/>
      <use xlink:href="#DejaVuSerif-6c" transform="translate(153.652344 0)"/>
      <use xlink:href="#DejaVuSerif-6c" transform="translate(185.634766 0)"/>
      <use xlink:href="#DejaVuSerif-2d" transform="translate(217.617188 0)"/>
      <use xlink:href="#DejaVuSerif-63" transform="translate(251.40625 0)"/>
      <use xlink:href="#DejaVuSerif-6c" transform="translate(307.412109 0)"/>
      <use xlink:href="#DejaVuSerif-6f" transform="translate(339.394531 0)"/>
      <use xlink:href="#DejaVuSerif-63" transform="translate(399.599609 0)"/>
      <use xlink:href="#DejaVuSerif-6b" transform="translate(455.605469 0)"/>
      <use xlink:href="#DejaVuSerif-20" transform="translate(516.201172 0)"/>
      <use xlink:href="#DejaVuSerif-72" transform="translate(547.988281 0)"/>
      <use xlink:href="#DejaVuSerif-75" transform="translate(595.791016 0)"/>
      <use xlink:href="#DejaVuSerif-6e" transform="translate(660.195312 0)"/>
      <use xlink:href="#DejaVuSerif-74" transform="translate(724.599609 0)"/>
      <use xlink:href="#DejaVuSerif-69" transform="translate(764.785156 0)"/>
      <use xlink:href="#DejaVuSerif-6d" transform="translate(796.767578 0)"/>
      <use xlink:href="#DejaVuSerif-65" transform="translate(891.591797 0)"/>
      <use xlink:href="#DejaVuSerif-20" transform="translate(950.771484 0)"/>
      <use xlink:href="#DejaVuSerif-28" transform="translate(982.558594 0)"/>
      <use xlink:href="#DejaVuSerif-b5" transform="translate(1021.572266 0)"/>
      <use xlink:href="#DejaVuSerif-73" transform="translate(1086.5625 0)"/>
      <use xlink:href="#DejaVuSerif-29" transform="translate(1137.880859 0)"/>
     </g>
    </g>
   </g>
   <g id="patch_3">
    <path d="M 75.629119 202.998281 
L 210.901847 202.998281 
L 210.901847 30.515501 
L 75.629119 30.515501 
z
" clip-path="url(#p87757a149d)" style="stroke: #ffffff; stroke-width: 0.8; stroke-linejoin: miter"/>
   </g>
   <g id="patch_4">
    <path d="M 244.720028 202.998281 
L 379.992756 202.998281 
L 379.992756 69.795571 
L 244.720028 69.795571 
z
" clip-path="url(#p87757a149d)" style="fill: #e69f00; stroke: #ffffff; stroke-width: 0.8; stroke-linejoin: miter"/>
   </g>
   <g id="LineCollection_1">
    <path d="M 143.265483 30.780919 
L 143.265483 30.198281 
" clip-path="url(#p87757a149d)" style="fill: none; stroke: #000000; stroke-width: 1.5"/>
    <path d="M 312.356392 70.072768 
L 312.356392 69.332326 
" clip-path="url(#p87757a149d)" style="fill: none; stroke: #000000; stroke-width: 1.5"/>
   </g>
   <g id="line2d_23">
    <defs>
     <path id="m856bd02d82" d="M 4 0 
L -4 -0 
" style="stroke: #000000"/>
    </defs>
    <g clip-path="url(#p87757a149d)">
     <use xlink:href="#m856bd02d82" x="143.265483" y="30.780919" style="stroke: #000000"/>
     <use xlink:href="#m856bd02d82" x="312.356392" y="70.072768" style="stroke: #000000"/>
    </g>
   </g>
   <g id="line2d_24">
    <g clip-path="url(#p87757a149d)">
     <use xlink:href="#m856bd02d82" x="143.265483" y="30.198281" style="stroke: #000000"/>
     <use xlink:href="#m856bd02d82" x="312.356392" y="69.332326" style="stroke: #000000"/>
    </g>
   </g>
   <g id="patch_5">
    <path d="M 60.410938 202.998281 
L 60.410938 21.558281 
" style="fill: none; stroke: #000000; stroke-width: 0.8; stroke-linejoin: miter; stroke-linecap: square"/>
   </g>
   <g id="patch_6">
    <path d="M 60.410938 202.998281 
L 395.210938 202.998281 
" style="fill: none; stroke: #000000; stroke-width: 0.8; stroke-linejoin: miter; stroke-linecap: square"/>
   </g>
   <g id="text_13">
    <!-- 79 µs (+29.5%) -->
    <g transform="translate(107.868061 28.643782) scale(0.09 -0.09)">
     <defs>
      <path id="DejaVuSerif-39" d="M 2994 2091 
Q 2784 1856 2512 1740 
Q 2241 1625 1900 1625 
Q 1206 1625 804 2044 
Q 403 2463 403 3188 
Q 403 3897 839 4323 
Q 1275 4750 2003 4750 
Q 2794 4750 3217 4161 
Q 3641 3572 3641 2478 
Q 3641 1253 3137 581 
Q 2634 -91 1722 -91 
Q 1475 -91 1203 -44 
Q 931 3 647 97 
L 647 872 
L 997 872 
Q 1038 556 1241 387 
Q 1444 219 1784 219 
Q 2391 219 2687 676 
Q 2984 1134 2994 2091 
z
M 1978 4441 
Q 1534 4441 1298 4117 
Q 1063 3794 1063 3188 
Q 1063 2581 1298 2256 
Q 1534 1931 1978 1931 
Q 2422 1931 2658 2245 
Q 2894 2559 2894 3150 
Q 2894 3772 2656 4106 
Q 2419 4441 1978 4441 
z
" transform="scale(0.015625)"/>
      <path id="DejaVuSerif-2b" d="M 2931 4013 
L 2931 2259 
L 4684 2259 
L 4684 1753 
L 2931 1753 
L 2931 0 
L 2431 0 
L 2431 1753 
L 678 1753 
L 678 2259 
L 2431 2259 
L 2431 4013 
L 2931 4013 
z
" transform="scale(0.015625)"/>
      <path id="DejaVuSerif-2e" d="M 603 325 
Q 603 500 722 622 
Q 841 744 1019 744 
Q 1191 744 1312 622 
Q 1434 500 1434 325 
Q 1434 153 1312 31 
Q 1191 -91 1019 -91 
Q 841 -91 722 29 
Q 603 150 603 325 
z
" transform="scale(0.015625)"/>
      <path id="DejaVuSerif-25" d="M 1434 4459 
Q 1159 4459 1004 4200 
Q 850 3941 850 3475 
Q 850 3016 1008 2753 
Q 1166 2491 1434 2491 
Q 1700 2491 1854 2752 
Q 2009 3013 2009 3475 
Q 2009 3938 1854 4198 
Q 1700 4459 1434 4459 
z
M 4653 2169 
Q 4381 2169 4226 1906 
Q 4072 1644 4072 1178 
Q 4072 719 4228 458 
Q 4384 197 4653 197 
Q 4922 197 5075 458 
Q 5228 719 5228 1178 
Q 5228 1641 5073 1905 
Q 4919 2169 4653 2169 
z
M 4653 2450 
Q 5147 2450 5437 2106 
Q 5728 1763 5728 1178 
Q 5728 594 5436 251 
Q 5144 -91 4653 -91 
Q 4153 -91 3862 251 
Q 3572 594 3572 1178 
Q 3572 1766 3864 2108 
Q 4156 2450 4653 2450 
z
M 4263 4750 
L 4738 4750 
L 1819 -91 
L 1344 -91 
L 4263 4750 
z
M 1428 4750 
Q 1922 4750 2215 4408 
Q 2509 4066 2509 3481 
Q 2509 2891 2217 2550 
Q 1925 2209 1428 2209 
Q 931 2209 642 2551 
Q 353 2894 353 3481 
Q 353 4063 643 4406 
Q 934 4750 1428 4750 
z
" transform="scale(0.015625)"/>
     </defs>
     <use xlink:href="#DejaVuSerif-37"/>
     <use xlink:href="#DejaVuSerif-39" transform="translate(63.623047 0)"/>
     <use xlink:href="#DejaVuSerif-20" transform="translate(127.246094 0)"/>
     <use xlink:href="#DejaVuSerif-b5" transform="translate(159.033203 0)"/>
     <use xlink:href="#DejaVuSerif-73" transform="translate(224.023438 0)"/>
     <use xlink:href="#DejaVuSerif-20" transform="translate(275.341797 0)"/>
     <use xlink:href="#DejaVuSerif-28" transform="translate(307.128906 0)"/>
     <use xlink:href="#DejaVuSerif-2b" transform="translate(346.142578 0)"/>
     <use xlink:href="#DejaVuSerif-32" transform="translate(429.931641 0)"/>
     <use xlink:href="#DejaVuSerif-39" transform="translate(493.554688 0)"/>
     <use xlink:href="#DejaVuSerif-2e" transform="translate(557.177734 0)"/>
     <use xlink:href="#DejaVuSerif-35" transform="translate(588.964844 0)"/>
     <use xlink:href="#DejaVuSerif-25" transform="translate(652.587891 0)"/>
     <use xlink:href="#DejaVuSerif-29" transform="translate(747.607422 0)"/>
    </g>
   </g>
   <g id="text_14">
    <!-- 61 µs -->
    <g transform="translate(299.966626 67.923852) scale(0.09 -0.09)">
     <use xlink:href="#DejaVuSerif-36"/>
     <use xlink:href="#DejaVuSerif-31" transform="translate(63.623047 0)"/>
     <use xlink:href="#DejaVuSerif-20" transform="translate(127.246094 0)"/>
     <use xlink:href="#DejaVuSerif-b5" transform="translate(159.033203 0)"/>
     <use xlink:href="#DejaVuSerif-73" transform="translate(224.023438 0)"/>
    </g>
   </g>
   <g id="text_15">
    <!-- Dense-output overhead on Lorenz -->
    <g transform="translate(133.044219 15.558281) scale(0.11 -0.11)">
     <defs>
      <path id="DejaVuSerif-76" d="M 1581 0 
L 359 2988 
L -19 2988 
L -19 3322 
L 1509 3322 
L 1509 2988 
L 978 2988 
L 1913 703 
L 2847 2988 
L 2350 2988 
L 2350 3322 
L 3597 3322 
L 3597 2988 
L 3225 2988 
L 2003 0 
L 1581 0 
z
" transform="scale(0.015625)"/>
      <path id="DejaVuSerif-68" d="M 263 0 
L 263 331 
L 781 331 
L 781 4531 
L 231 4531 
L 231 4863 
L 1356 4863 
L 1356 2731 
Q 1516 3069 1770 3241 
Q 2025 3413 2363 3413 
Q 2913 3413 3172 3097 
Q 3431 2781 3431 2113 
L 3431 331 
L 3944 331 
L 3944 0 
L 2356 0 
L 2356 331 
L 2853 331 
L 2853 1931 
Q 2853 2541 2704 2764 
Q 2556 2988 2175 2988 
Q 1775 2988 1565 2697 
Q 1356 2406 1356 1850 
L 1356 331 
L 1856 331 
L 1856 0 
L 263 0 
z
" transform="scale(0.015625)"/>
      <path id="DejaVuSerif-4c" d="M 353 0 
L 353 331 
L 947 331 
L 947 4331 
L 353 4331 
L 353 4666 
L 2175 4666 
L 2175 4331 
L 1581 4331 
L 1581 384 
L 3713 384 
L 3713 1166 
L 4097 1166 
L 4097 0 
L 353 0 
z
" transform="scale(0.015625)"/>
      <path id="DejaVuSerif-7a" d="M 256 0 
L 256 269 
L 2338 2988 
L 691 2988 
L 691 2413 
L 359 2413 
L 359 3322 
L 3078 3322 
L 3078 3053 
L 997 331 
L 2803 331 
L 2803 934 
L 3138 934 
L 3138 0 
L 256 0 
z
" transform="scale(0.015625)"/>
     </defs>
     <use xlink:href="#DejaVuSerif-44"/>
     <use xlink:href="#DejaVuSerif-65" transform="translate(80.175781 0)"/>
     <use xlink:href="#DejaVuSerif-6e" transform="translate(139.355469 0)"/>
     <use xlink:href="#DejaVuSerif-73" transform="translate(203.759766 0)"/>
     <use xlink:href="#DejaVuSerif-65" transform="translate(255.078125 0)"/>
     <use xlink:href="#DejaVuSerif-2d" transform="translate(314.257812 0)"/>
     <use xlink:href="#DejaVuSerif-6f" transform="translate(348.046875 0)"/>
     <use xlink:href="#DejaVuSerif-75" transform="translate(408.251953 0)"/>
     <use xlink:href="#DejaVuSerif-74" transform="translate(472.65625 0)"/>
     <use xlink:href="#DejaVuSerif-70" transform="translate(512.841797 0)"/>
     <use xlink:href="#DejaVuSerif-75" transform="translate(576.855469 0)"/>
     <use xlink:href="#DejaVuSerif-74" transform="translate(641.259766 0)"/>
     <use xlink:href="#DejaVuSerif-20" transform="translate(681.445312 0)"/>
     <use xlink:href="#DejaVuSerif-6f" transform="translate(713.232422 0)"/>
     <use xlink:href="#DejaVuSerif-76" transform="translate(773.4375 0)"/>
     <use xlink:href="#DejaVuSerif-65" transform="translate(829.931641 0)"/>
     <use xlink:href="#DejaVuSerif-72" transform="translate(889.111328 0)"/>
     <use xlink:href="#DejaVuSerif-68" transform="translate(936.914062 0)"/>
     <use xlink:href="#DejaVuSerif-65" transform="translate(1001.318359 0)"/>
     <use xlink:href="#DejaVuSerif-61" transform="translate(1060.498047 0)"/>
     <use xlink:href="#DejaVuSerif-64" transform="translate(1120.117188 0)"/>
     <use xlink:href="#DejaVuSerif-20" transform="translate(1184.130859 0)"/>
     <use xlink:href="#DejaVuSerif-6f" transform="translate(1215.917969 0)"/>
     <use xlink:href="#DejaVuSerif-6e" transform="translate(1276.123047 0)"/>
     <use xlink:href="#DejaVuSerif-20" transform="translate(1340.527344 0)"/>
     <use xlink:href="#DejaVuSerif-4c" transform="translate(1372.314453 0)"/>
     <use xlink:href="#DejaVuSerif-6f" transform="translate(1438.720703 0)"/>
     <use xlink:href="#DejaVuSerif-72" transform="translate(1498.925781 0)"/>
     <use xlink:href="#DejaVuSerif-65" transform="translate(1546.728516 0)"/>
     <use xlink:href="#DejaVuSerif-6e" transform="translate(1605.908203 0)"/>
     <use xlink:href="#DejaVuSerif-7a" transform="translate(1670.3125 0)"/>
    </g>
   </g>
  </g>
  <g id="text_16">
   <!-- Problem: Lorenz system, y0=[1,1,1], t in [0, 10] · Solver: DoPri5 with and without dense output (5th-order interpolant) · tol: rtol = -->
   <g style="fill: #5c6370" transform="translate(7.2 239.454703) scale(0.065 -0.065)">
    <defs>
     <path id="DejaVuSerif-3a" d="M 666 325 
Q 666 500 786 622 
Q 906 744 1081 744 
Q 1256 744 1376 622 
Q 1497 500 1497 325 
Q 1497 150 1378 29 
Q 1259 -91 1081 -91 
Q 903 -91 784 29 
Q 666 150 666 325 
z
M 666 2363 
Q 666 2538 786 2658 
Q 906 2778 1081 2778 
Q 1259 2778 1378 2659 
Q 1497 2541 1497 2363 
Q 1497 2184 1378 2065 
Q 1259 1947 1081 1947 
Q 906 1947 786 2067 
Q 666 2188 666 2363 
z
" transform="scale(0.015625)"/>
     <path id="DejaVuSerif-79" d="M 1381 -609 
L 1600 -56 
L 359 2988 
L -19 2988 
L -19 3322 
L 1509 3322 
L 1509 2988 
L 978 2988 
L 1913 703 
L 2847 2988 
L 2350 2988 
L 2350 3322 
L 3597 3322 
L 3597 2988 
L 3225 2988 
L 1703 -750 
Q 1547 -1138 1356 -1280 
Q 1166 -1422 819 -1422 
Q 672 -1422 517 -1397 
Q 363 -1372 206 -1325 
L 206 -691 
L 500 -691 
Q 519 -903 608 -995 
Q 697 -1088 884 -1088 
Q 1056 -1088 1161 -992 
Q 1266 -897 1381 -609 
z
" transform="scale(0.015625)"/>
     <path id="DejaVuSerif-2c" d="M 231 -622 
Q 525 -406 662 -114 
Q 800 178 800 594 
L 800 709 
L 1416 709 
Q 1391 175 1164 -208 
Q 938 -591 481 -872 
L 231 -622 
z
" transform="scale(0.015625)"/>
     <path id="DejaVuSerif-3d" d="M 678 2894 
L 4684 2894 
L 4684 2394 
L 678 2394 
L 678 2894 
z
M 678 1619 
L 4684 1619 
L 4684 1119 
L 678 1119 
L 678 1619 
z
" transform="scale(0.015625)"/>
     <path id="DejaVuSerif-5b" d="M 550 4863 
L 2003 4863 
L 2003 4531 
L 1147 4531 
L 1147 -513 
L 2003 -513 
L 2003 -844 
L 550 -844 
L 550 4863 
z
" transform="scale(0.015625)"/>
     <path id="DejaVuSerif-5d" d="M 1947 4863 
L 1947 -844 
L 494 -844 
L 494 -513 
L 1350 -513 
L 1350 4531 
L 494 4531 
L 494 4863 
L 1947 4863 
z
" transform="scale(0.015625)"/>
     <path id="DejaVuSerif-b7" d="M 594 2222 
Q 594 2397 714 2517 
Q 834 2638 1013 2638 
Q 1184 2638 1306 2516 
Q 1428 2394 1428 2222 
Q 1428 2047 1306 1926 
Q 1184 1806 1013 1806 
Q 834 1806 714 1925 
Q 594 2044 594 2222 
z
" transform="scale(0.015625)"/>
     <path id="DejaVuSerif-53" d="M 594 225 
L 594 1288 
L 953 1284 
Q 969 753 1261 498 
Q 1553 244 2150 244 
Q 2706 244 2998 464 
Q 3291 684 3291 1106 
Q 3291 1444 3114 1625 
Q 2938 1806 2369 1978 
L 1753 2163 
Q 1084 2366 811 2669 
Q 538 2972 538 3500 
Q 538 4094 959 4422 
Q 1381 4750 2144 4750 
Q 2469 4750 2856 4679 
Q 3244 4609 3681 4475 
L 3681 3481 
L 3328 3481 
Q 3275 3975 2998 4195 
Q 2722 4416 2156 4416 
Q 1663 4416 1405 4214 
Q 1147 4013 1147 3628 
Q 1147 3294 1340 3103 
Q 1534 2913 2163 2725 
L 2741 2553 
Q 3375 2363 3645 2067 
Q 3916 1772 3916 1275 
Q 3916 597 3481 253 
Q 3047 -91 2188 -91 
Q 1803 -91 1404 -12 
Q 1006 66 594 225 
z
" transform="scale(0.015625)"/>
     <path id="DejaVuSerif-77" d="M 3072 3322 
L 3922 728 
L 4672 2988 
L 4191 2988 
L 4191 3322 
L 5394 3322 
L 5394 2988 
L 5025 2988 
L 4038 0 
L 3559 0 
L 2741 2484 
L 1919 0 
L 1459 0 
L 475 2988 
L 103 2988 
L 103 3322 
L 1606 3322 
L 1606 2988 
L 1069 2988 
L 1813 728 
L 2669 3322 
L 3072 3322 
z
" transform="scale(0.015625)"/>
    </defs>
    <use xlink:href="#DejaVuSerif-50"/>
    <use xlink:href="#DejaVuSerif-72" transform="translate(67.285156 0)"/>
    <use xlink:href="#DejaVuSerif-6f" transform="translate(115.087891 0)"/>
    <use xlink:href="#DejaVuSerif-62" transform="translate(175.292969 0)"/>
    <use xlink:href="#DejaVuSerif-6c" transform="translate(239.306641 0)"/>
    <use xlink:href="#DejaVuSerif-65" transform="translate(271.289062 0)"/>
    <use xlink:href="#DejaVuSerif-6d" transform="translate(330.46875 0)"/>
    <use xlink:href="#DejaVuSerif-3a" transform="translate(425.292969 0)"/>
    <use xlink:href="#DejaVuSerif-20" transform="translate(458.984375 0)"/>
    <use xlink:href="#DejaVuSerif-4c" transform="translate(490.771484 0)"/>
    <use xlink:href="#DejaVuSerif-6f" transform="translate(557.177734 0)"/>
    <use xlink:href="#DejaVuSerif-72" transform="translate(617.382812 0)"/>
    <use xlink:href="#DejaVuSerif-65" transform="translate(665.185547 0)"/>
    <use xlink:href="#DejaVuSerif-6e" transform="translate(724.365234 0)"/>
    <use xlink:href="#DejaVuSerif-7a" transform="translate(788.769531 0)"/>
    <use xlink:href="#DejaVuSerif-20" transform="translate(841.455078 0)"/>
    <use xlink:href="#DejaVuSerif-73" transform="translate(873.242188 0)"/>
    <use xlink:href="#DejaVuSerif-79" transform="translate(924.560547 0)"/>
    <use xlink:href="#DejaVuSerif-73" transform="translate(981.054688 0)"/>
    <use xlink:href="#DejaVuSerif-74" transform="translate(1032.373047 0)"/>
    <use xlink:href="#DejaVuSerif-65" transform="translate(1072.558594 0)"/>
    <use xlink:href="#DejaVuSerif-6d" transform="translate(1131.738281 0)"/>
    <use xlink:href="#DejaVuSerif-2c" transform="translate(1226.5625 0)"/>
    <use xlink:href="#DejaVuSerif-20" transform="translate(1258.349609 0)"/>
    <use xlink:href="#DejaVuSerif-79" transform="translate(1290.136719 0)"/>
    <use xlink:href="#DejaVuSerif-30" transform="translate(1346.630859 0)"/>
    <use xlink:href="#DejaVuSerif-3d" transform="translate(1410.253906 0)"/>
    <use xlink:href="#DejaVuSerif-5b" transform="translate(1494.042969 0)"/>
    <use xlink:href="#DejaVuSerif-31" transform="translate(1533.056641 0)"/>
    <use xlink:href="#DejaVuSerif-2c" transform="translate(1596.679688 0)"/>
    <use xlink:href="#DejaVuSerif-31" transform="translate(1628.466797 0)"/>
    <use xlink:href="#DejaVuSerif-2c" transform="translate(1692.089844 0)"/>
    <use xlink:href="#DejaVuSerif-31" transform="translate(1723.876953 0)"/>
    <use xlink:href="#DejaVuSerif-5d" transform="translate(1787.5 0)"/>
    <use xlink:href="#DejaVuSerif-2c" transform="translate(1826.513672 0)"/>
    <use xlink:href="#DejaVuSerif-20" transform="translate(1858.300781 0)"/>
    <use xlink:href="#DejaVuSerif-74" transform="translate(1890.087891 0)"/>
    <use xlink:href="#DejaVuSerif-20" transform="translate(1930.273438 0)"/>
    <use xlink:href="#DejaVuSerif-69" transform="translate(1962.060547 0)"/>
    <use xlink:href="#DejaVuSerif-6e" transform="translate(1994.042969 0)"/>
    <use xlink:href="#DejaVuSerif-20" transform="translate(2058.447266 0)"/>
    <use xlink:href="#DejaVuSerif-5b" transform="translate(2090.234375 0)"/>
    <use xlink:href="#DejaVuSerif-30" transform="translate(2129.248047 0)"/>
    <use xlink:href="#DejaVuSerif-2c" transform="translate(2192.871094 0)"/>
    <use xlink:href="#DejaVuSerif-20" transform="translate(2224.658203 0)"/>
    <use xlink:href="#DejaVuSerif-31" transform="translate(2256.445312 0)"/>
    <use xlink:href="#DejaVuSerif-30" transform="translate(2320.068359 0)"/>
    <use xlink:href="#DejaVuSerif-5d" transform="translate(2383.691406 0)"/>
    <use xlink:href="#DejaVuSerif-20" transform="translate(2422.705078 0)"/>
    <use xlink:href="#DejaVuSerif-b7" transform="translate(2454.492188 0)"/>
    <use xlink:href="#DejaVuSerif-20" transform="translate(2486.279297 0)"/>
    <use xlink:href="#DejaVuSerif-53" transform="translate(2518.066406 0)"/>
    <use xlink:href="#DejaVuSerif-6f" transform="translate(2586.572266 0)"/>
    <use xlink:href="#DejaVuSerif-6c" transform="translate(2646.777344 0)"/>
    <use xlink:href="#DejaVuSerif-76" transform="translate(2678.759766 0)"/>
    <use xlink:href="#DejaVuSerif-65" transform="translate(2735.253906 0)"/>
    <use xlink:href="#DejaVuSerif-72" transform="translate(2794.433594 0)"/>
    <use xlink:href="#DejaVuSerif-3a" transform="translate(2842.236328 0)"/>
    <use xlink:href="#DejaVuSerif-20" transform="translate(2875.927734 0)"/>
    <use xlink:href="#DejaVuSerif-44" transform="translate(2907.714844 0)"/>
    <use xlink:href="#DejaVuSerif-6f" transform="translate(2987.890625 0)"/>
    <use xlink:href="#DejaVuSerif-50" transform="translate(3048.095703 0)"/>
    <use xlink:href="#DejaVuSerif-72" transform="translate(3115.380859 0)"/>
    <use xlink:href="#DejaVuSerif-69" transform="translate(3163.183594 0)"/>
    <use xlink:href="#DejaVuSerif-35" transform="translate(3195.166016 0)"/>
    <use xlink:href="#DejaVuSerif-20" transform="translate(3258.789062 0)"/>
    <use xlink:href="#DejaVuSerif-77" transform="translate(3290.576172 0)"/>
    <use xlink:href="#DejaVuSerif-69" transform="translate(3376.171875 0)"/>
    <use xlink:href="#DejaVuSerif-74" transform="translate(3408.154297 0)"/>
    <use xlink:href="#DejaVuSerif-68" transform="translate(3448.339844 0)"/>
    <use xlink:href="#DejaVuSerif-20" transform="translate(3512.744141 0)"/>
    <use xlink:href="#DejaVuSerif-61" transform="translate(3544.53125 0)"/>
    <use xlink:href="#DejaVuSerif-6e" transform="translate(3604.150391 0)"/>
    <use xlink:href="#DejaVuSerif-64" transform="translate(3668.554688 0)"/>
    <use xlink:href="#DejaVuSerif-20" transform="translate(3732.568359 0)"/>
    <use xlink:href="#DejaVuSerif-77" transform="translate(3764.355469 0)"/>
    <use xlink:href="#DejaVuSerif-69" transform="translate(3849.951172 0)"/>
    <use xlink:href="#DejaVuSerif-74" transform="translate(3881.933594 0)"/>
    <use xlink:href="#DejaVuSerif-68" transform="translate(3922.119141 0)"/>
    <use xlink:href="#DejaVuSerif-6f" transform="translate(3986.523438 0)"/>
    <use xlink:href="#DejaVuSerif-75" transform="translate(4046.728516 0)"/>
    <use xlink:href="#DejaVuSerif-74" transform="translate(4111.132812 0)"/>
    <use xlink:href="#DejaVuSerif-20" transform="translate(4151.318359 0)"/>
    <use xlink:href="#DejaVuSerif-64" transform="translate(4183.105469 0)"/>
    <use xlink:href="#DejaVuSerif-65" transform="translate(4247.119141 0)"/>
    <use xlink:href="#DejaVuSerif-6e" transform="translate(4306.298828 0)"/>
    <use xlink:href="#DejaVuSerif-73" transform="translate(4370.703125 0)"/>
    <use xlink:href="#DejaVuSerif-65" transform="translate(4422.021484 0)"/>
    <use xlink:href="#DejaVuSerif-20" transform="translate(4481.201172 0)"/>
    <use xlink:href="#DejaVuSerif-6f" transform="translate(4512.988281 0)"/>
    <use xlink:href="#DejaVuSerif-75" transform="translate(4573.193359 0)"/>
    <use xlink:href="#DejaVuSerif-74" transform="translate(4637.597656 0)"/>
    <use xlink:href="#DejaVuSerif-70" transform="translate(4677.783203 0)"/>
    <use xlink:href="#DejaVuSerif-75" transform="translate(4741.796875 0)"/>
    <use xlink:href="#DejaVuSerif-74" transform="translate(4806.201172 0)"/>
    <use xlink:href="#DejaVuSerif-20" transform="translate(4846.386719 0)"/>
    <use xlink:href="#DejaVuSerif-28" transform="translate(4878.173828 0)"/>
    <use xlink:href="#DejaVuSerif-35" transform="translate(4917.1875 0)"/>
    <use xlink:href="#DejaVuSerif-74" transform="translate(4980.810547 0)"/>
    <use xlink:href="#DejaVuSerif-68" transform="translate(5020.996094 0)"/>
    <use xlink:href="#DejaVuSerif-2d" transform="translate(5085.400391 0)"/>
    <use xlink:href="#DejaVuSerif-6f" transform="translate(5119.189453 0)"/>
    <use xlink:href="#DejaVuSerif-72" transform="translate(5179.394531 0)"/>
    <use xlink:href="#DejaVuSerif-64" transform="translate(5227.197266 0)"/>
    <use xlink:href="#DejaVuSerif-65" transform="translate(5291.210938 0)"/>
    <use xlink:href="#DejaVuSerif-72" transform="translate(5350.390625 0)"/>
    <use xlink:href="#DejaVuSerif-20" transform="translate(5398.193359 0)"/>
    <use xlink:href="#DejaVuSerif-69" transform="translate(5429.980469 0)"/>
    <use xlink:href="#DejaVuSerif-6e" transform="translate(5461.962891 0)"/>
    <use xlink:href="#DejaVuSerif-74" transform="translate(5526.367188 0)"/>
    <use xlink:href="#DejaVuSerif-65" transform="translate(5566.552734 0)"/>
    <use xlink:href="#DejaVuSerif-72" transform="translate(5625.732422 0)"/>
    <use xlink:href="#DejaVuSerif-70" transform="translate(5673.535156 0)"/>
    <use xlink:href="#DejaVuSerif-6f" transform="translate(5737.548828 0)"/>
    <use xlink:href="#DejaVuSerif-6c" transform="translate(5797.753906 0)"/>
    <use xlink:href="#DejaVuSerif-61" transform="translate(5829.736328 0)"/>
    <use xlink:href="#DejaVuSerif-6e" transform="translate(5889.355469 0)"/>
    <use xlink:href="#DejaVuSerif-74" transform="translate(5953.759766 0)"/>
    <use xlink:href="#DejaVuSerif-29" transform="translate(5993.945312 0)"/>
    <use xlink:href="#DejaVuSerif-20" transform="translate(6032.958984 0)"/>
    <use xlink:href="#DejaVuSerif-b7" transform="translate(6064.746094 0)"/>
    <use xlink:href="#DejaVuSerif-20" transform="translate(6096.533203 0)"/>
    <use xlink:href="#DejaVuSerif-74" transform="translate(6128.320312 0)"/>
    <use xlink:href="#DejaVuSerif-6f" transform="translate(6168.505859 0)"/>
    <use xlink:href="#DejaVuSerif-6c" transform="translate(6228.710938 0)"/>
    <use xlink:href="#DejaVuSerif-3a" transform="translate(6260.693359 0)"/>
    <use xlink:href="#DejaVuSerif-20" transform="translate(6294.384766 0)"/>
    <use xlink:href="#DejaVuSerif-72" transform="translate(6326.171875 0)"/>
    <use xlink:href="#DejaVuSerif-74" transform="translate(6373.974609 0)"/>
    <use xlink:href="#DejaVuSerif-6f" transform="translate(6414.160156 0)"/>
    <use xlink:href="#DejaVuSerif-6c" transform="translate(6474.365234 0)"/>
    <use xlink:href="#DejaVuSerif-20" transform="translate(6506.347656 0)"/>
    <use xlink:href="#DejaVuSerif-3d" transform="translate(6538.134766 0)"/>
   </g>
   <!-- 1e-6, atol = 1e-9 · Numra @ 04cb123 · rustc 1.92.0 · Apple M4 Max · Repro: numra-bench/benches/solvers.rs::bench_dense_output -->
   <g style="fill: #5c6370" transform="translate(6.077734 246.825703) scale(0.065 -0.065)">
    <defs>
     <path id="DejaVuSerif-4e" d="M 313 0 
L 313 331 
L 941 331 
L 941 4331 
L 313 4331 
L 313 4666 
L 1509 4666 
L 4306 984 
L 4306 4331 
L 3681 4331 
L 3681 4666 
L 5319 4666 
L 5319 4331 
L 4691 4331 
L 4691 -91 
L 4313 -91 
L 1325 3841 
L 1325 331 
L 1953 331 
L 1953 0 
L 313 0 
z
" transform="scale(0.015625)"/>
     <path id="DejaVuSerif-40" d="M 4044 775 
Q 3859 519 3629 394 
Q 3400 269 3109 269 
Q 2563 269 2222 659 
Q 1881 1050 1881 1678 
Q 1881 2306 2222 2695 
Q 2563 3084 3109 3084 
Q 3400 3084 3629 2959 
Q 3859 2834 4044 2578 
L 4044 3022 
L 4531 3022 
L 4531 609 
Q 5063 725 5356 1115 
Q 5650 1506 5650 2094 
Q 5650 2441 5544 2750 
Q 5438 3059 5228 3322 
Q 4897 3738 4420 3958 
Q 3944 4178 3384 4178 
Q 3103 4178 2828 4118 
Q 2553 4059 2284 3938 
Q 1653 3647 1303 3058 
Q 953 2469 953 1697 
Q 953 1175 1109 736 
Q 1266 297 1563 -25 
Q 1903 -397 2370 -592 
Q 2838 -788 3378 -788 
Q 3781 -788 4131 -669 
Q 4481 -550 4781 -313 
L 4947 -531 
Q 4609 -822 4181 -967 
Q 3753 -1113 3244 -1113 
Q 2672 -1113 2151 -905 
Q 1631 -697 1241 -313 
Q 838 84 630 595 
Q 422 1106 422 1697 
Q 422 2272 631 2781 
Q 841 3291 1241 3688 
Q 1638 4081 2177 4293 
Q 2716 4506 3322 4506 
Q 3991 4506 4542 4247 
Q 5094 3988 5466 3500 
Q 5703 3194 5825 2834 
Q 5947 2475 5947 2088 
Q 5947 1250 5437 764 
Q 4928 278 4047 269 
L 4044 775 
z
M 4044 1516 
L 4044 1844 
Q 4044 2234 3820 2476 
Q 3597 2719 3238 2719 
Q 2859 2719 2648 2445 
Q 2438 2172 2438 1678 
Q 2438 1181 2650 907 
Q 2863 634 3244 634 
Q 3600 634 3822 879 
Q 4044 1125 4044 1516 
z
" transform="scale(0.015625)"/>
     <path id="DejaVuSerif-41" d="M 1281 1691 
L 2994 1691 
L 2138 3909 
L 1281 1691 
z
M -38 0 
L -38 331 
L 372 331 
L 2034 4666 
L 2559 4666 
L 4225 331 
L 4684 331 
L 4684 0 
L 2988 0 
L 2988 331 
L 3506 331 
L 3116 1356 
L 1153 1356 
L 763 331 
L 1275 331 
L 1275 0 
L -38 0 
z
" transform="scale(0.015625)"/>
     <path id="DejaVuSerif-4d" d="M 353 0 
L 353 331 
L 947 331 
L 947 4331 
L 319 4331 
L 319 4666 
L 1678 4666 
L 3316 1344 
L 4953 4666 
L 6228 4666 
L 6228 4331 
L 5606 4331 
L 5606 331 
L 6203 331 
L 6203 0 
L 4378 0 
L 4378 331 
L 4972 331 
L 4972 3938 
L 3372 684 
L 2931 684 
L 1331 3938 
L 1331 331 
L 1925 331 
L 1925 0 
L 353 0 
z
" transform="scale(0.015625)"/>
     <path id="DejaVuSerif-78" d="M 1863 2028 
L 2559 2988 
L 2113 2988 
L 2113 3322 
L 3391 3322 
L 3391 2988 
L 2950 2988 
L 2059 1759 
L 3097 331 
L 3531 331 
L 3531 0 
L 1997 0 
L 1997 331 
L 2419 331 
L 1697 1325 
L 972 331 
L 1403 331 
L 1403 0 
L 141 0 
L 141 331 
L 581 331 
L 1497 1594 
L 488 2988 
L 78 2988 
L 78 3322 
L 1563 3322 
L 1563 2988 
L 1166 2988 
L 1863 2028 
z
" transform="scale(0.015625)"/>
     <path id="DejaVuSerif-52" d="M 3066 2316 
Q 3284 2256 3442 2114 
Q 3600 1972 3725 1716 
L 4403 331 
L 4972 331 
L 4972 0 
L 3872 0 
L 3144 1484 
Q 2934 1916 2759 2042 
Q 2584 2169 2278 2169 
L 1581 2169 
L 1581 331 
L 2241 331 
L 2241 0 
L 353 0 
L 353 331 
L 947 331 
L 947 4331 
L 353 4331 
L 353 4666 
L 2719 4666 
Q 3400 4666 3770 4341 
Q 4141 4016 4141 3419 
Q 4141 2938 3870 2661 
Q 3600 2384 3066 2316 
z
M 1581 2503 
L 2503 2503 
Q 2975 2503 3200 2726 
Q 3425 2950 3425 3419 
Q 3425 3888 3200 4109 
Q 2975 4331 2503 4331 
L 1581 4331 
L 1581 2503 
z
" transform="scale(0.015625)"/>
     <path id="DejaVuSerif-2f" d="M 1656 4666 
L 2156 4666 
L 500 -594 
L 0 -594 
L 1656 4666 
z
" transform="scale(0.015625)"/>
     <path id="DejaVuSerif-5f" d="M 3200 -1259 
L 3200 -1509 
L 0 -1509 
L 0 -1259 
L 3200 -1259 
z
" transform="scale(0.015625)"/>
    </defs>
    <use xlink:href="#DejaVuSerif-31"/>
    <use xlink:href="#DejaVuSerif-65" transform="translate(63.623047 0)"/>
    <use xlink:href="#DejaVuSerif-2d" transform="translate(122.802734 0)"/>
    <use xlink:href="#DejaVuSerif-36" transform="translate(156.591797 0)"/>
    <use xlink:href="#DejaVuSerif-2c" transform="translate(220.214844 0)"/>
    <use xlink:href="#DejaVuSerif-20" transform="translate(252.001953 0)"/>
    <use xlink:href="#DejaVuSerif-61" transform="translate(283.789062 0)"/>
    <use xlink:href="#DejaVuSerif-74" transform="translate(343.408203 0)"/>
    <use xlink:href="#DejaVuSerif-6f" transform="translate(383.59375 0)"/>
    <use xlink:href="#DejaVuSerif-6c" transform="translate(443.798828 0)"/>
    <use xlink:href="#DejaVuSerif-20" transform="translate(475.78125 0)"/>
    <use xlink:href="#DejaVuSerif-3d" transform="translate(507.568359 0)"/>
    <use xlink:href="#DejaVuSerif-20" transform="translate(591.357422 0)"/>
    <use xlink:href="#DejaVuSerif-31" transform="translate(623.144531 0)"/>
    <use xlink:href="#DejaVuSerif-65" transform="translate(686.767578 0)"/>
    <use xlink:href="#DejaVuSerif-2d" transform="translate(745.947266 0)"/>
    <use xlink:href="#DejaVuSerif-39" transform="translate(779.736328 0)"/>
    <use xlink:href="#DejaVuSerif-20" transform="translate(843.359375 0)"/>
    <use xlink:href="#DejaVuSerif-b7" transform="translate(875.146484 0)"/>
    <use xlink:href="#DejaVuSerif-20" transform="translate(906.933594 0)"/>
    <use xlink:href="#DejaVuSerif-4e" transform="translate(938.720703 0)"/>
    <use xlink:href="#DejaVuSerif-75" transform="translate(1026.220703 0)"/>
    <use xlink:href="#DejaVuSerif-6d" transform="translate(1090.625 0)"/>
    <use xlink:href="#DejaVuSerif-72" transform="translate(1185.449219 0)"/>
    <use xlink:href="#DejaVuSerif-61" transform="translate(1233.251953 0)"/>
    <use xlink:href="#DejaVuSerif-20" transform="translate(1292.871094 0)"/>
    <use xlink:href="#DejaVuSerif-40" transform="translate(1324.658203 0)"/>
    <use xlink:href="#DejaVuSerif-20" transform="translate(1424.658203 0)"/>
    <use xlink:href="#DejaVuSerif-30" transform="translate(1456.445312 0)"/>
    <use xlink:href="#DejaVuSerif-34" transform="translate(1520.068359 0)"/>
    <use xlink:href="#DejaVuSerif-63" transform="translate(1583.691406 0)"/>
    <use xlink:href="#DejaVuSerif-62" transform="translate(1639.697266 0)"/>
    <use xlink:href="#DejaVuSerif-31" transform="translate(1703.710938 0)"/>
    <use xlink:href="#DejaVuSerif-32" transform="translate(1767.333984 0)"/>
    <use xlink:href="#DejaVuSerif-33" transform="translate(1830.957031 0)"/>
    <use xlink:href="#DejaVuSerif-20" transform="translate(1894.580078 0)"/>
    <use xlink:href="#DejaVuSerif-b7" transform="translate(1926.367188 0)"/>
    <use xlink:href="#DejaVuSerif-20" transform="translate(1958.154297 0)"/>
    <use xlink:href="#DejaVuSerif-72" transform="translate(1989.941406 0)"/>
    <use xlink:href="#DejaVuSerif-75" transform="translate(2037.744141 0)"/>
    <use xlink:href="#DejaVuSerif-73" transform="translate(2102.148438 0)"/>
    <use xlink:href="#DejaVuSerif-74" transform="translate(2153.466797 0)"/>
    <use xlink:href="#DejaVuSerif-63" transform="translate(2193.652344 0)"/>
    <use xlink:href="#DejaVuSerif-20" transform="translate(2249.658203 0)"/>
    <use xlink:href="#DejaVuSerif-31" transform="translate(2281.445312 0)"/>
    <use xlink:href="#DejaVuSerif-2e" transform="translate(2345.068359 0)"/>
    <use xlink:href="#DejaVuSerif-39" transform="translate(2376.855469 0)"/>
    <use xlink:href="#DejaVuSerif-32" transform="translate(2440.478516 0)"/>
    <use xlink:href="#DejaVuSerif-2e" transform="translate(2504.101562 0)"/>
    <use xlink:href="#DejaVuSerif-30" transform="translate(2535.888672 0)"/>
    <use xlink:href="#DejaVuSerif-20" transform="translate(2599.511719 0)"/>
    <use xlink:href="#DejaVuSerif-b7" transform="translate(2631.298828 0)"/>
    <use xlink:href="#DejaVuSerif-20" transform="translate(2663.085938 0)"/>
    <use xlink:href="#DejaVuSerif-41" transform="translate(2694.873047 0)"/>
    <use xlink:href="#DejaVuSerif-70" transform="translate(2767.089844 0)"/>
    <use xlink:href="#DejaVuSerif-70" transform="translate(2831.103516 0)"/>
    <use xlink:href="#DejaVuSerif-6c" transform="translate(2895.117188 0)"/>
    <use xlink:href="#DejaVuSerif-65" transform="translate(2927.099609 0)"/>
    <use xlink:href="#DejaVuSerif-20" transform="translate(2986.279297 0)"/>
    <use xlink:href="#DejaVuSerif-4d" transform="translate(3018.066406 0)"/>
    <use xlink:href="#DejaVuSerif-34" transform="translate(3120.458984 0)"/>
    <use xlink:href="#DejaVuSerif-20" transform="translate(3184.082031 0)"/>
    <use xlink:href="#DejaVuSerif-4d" transform="translate(3215.869141 0)"/>
    <use xlink:href="#DejaVuSerif-61" transform="translate(3318.261719 0)"/>
    <use xlink:href="#DejaVuSerif-78" transform="translate(3377.880859 0)"/>
    <use xlink:href="#DejaVuSerif-20" transform="translate(3434.277344 0)"/>
    <use xlink:href="#DejaVuSerif-b7" transform="translate(3466.064453 0)"/>
    <use xlink:href="#DejaVuSerif-20" transform="translate(3497.851562 0)"/>
    <use xlink:href="#DejaVuSerif-52" transform="translate(3529.638672 0)"/>
    <use xlink:href="#DejaVuSerif-65" transform="translate(3604.931641 0)"/>
    <use xlink:href="#DejaVuSerif-70" transform="translate(3664.111328 0)"/>
    <use xlink:href="#DejaVuSerif-72" transform="translate(3728.125 0)"/>
    <use xlink:href="#DejaVuSerif-6f" transform="translate(3775.927734 0)"/>
    <use xlink:href="#DejaVuSerif-3a" transform="translate(3836.132812 0)"/>
    <use xlink:href="#DejaVuSerif-20" transform="translate(3869.824219 0)"/>
    <use xlink:href="#DejaVuSerif-6e" transform="translate(3901.611328 0)"/>
    <use xlink:href="#DejaVuSerif-75" transform="translate(3966.015625 0)"/>
    <use xlink:href="#DejaVuSerif-6d" transform="translate(4030.419922 0)"/>
    <use xlink:href="#DejaVuSerif-72" transform="translate(4125.244141 0)"/>
    <use xlink:href="#DejaVuSerif-61" transform="translate(4173.046875 0)"/>
    <use xlink:href="#DejaVuSerif-2d" transform="translate(4232.666016 0)"/>
    <use xlink:href="#DejaVuSerif-62" transform="translate(4266.455078 0)"/>
    <use xlink:href="#DejaVuSerif-65" transform="translate(4330.46875 0)"/>
    <use xlink:href="#DejaVuSerif-6e" transform="translate(4389.648438 0)"/>
    <use xlink:href="#DejaVuSerif-63" transform="translate(4454.052734 0)"/>
    <use xlink:href="#DejaVuSerif-68" transform="translate(4510.058594 0)"/>
    <use xlink:href="#DejaVuSerif-2f" transform="translate(4574.462891 0)"/>
    <use xlink:href="#DejaVuSerif-62" transform="translate(4608.154297 0)"/>
    <use xlink:href="#DejaVuSerif-65" transform="translate(4672.167969 0)"/>
    <use xlink:href="#DejaVuSerif-6e" transform="translate(4731.347656 0)"/>
    <use xlink:href="#DejaVuSerif-63" transform="translate(4795.751953 0)"/>
    <use xlink:href="#DejaVuSerif-68" transform="translate(4851.757812 0)"/>
    <use xlink:href="#DejaVuSerif-65" transform="translate(4916.162109 0)"/>
    <use xlink:href="#DejaVuSerif-73" transform="translate(4975.341797 0)"/>
    <use xlink:href="#DejaVuSerif-2f" transform="translate(5026.660156 0)"/>
    <use xlink:href="#DejaVuSerif-73" transform="translate(5060.351562 0)"/>
    <use xlink:href="#DejaVuSerif-6f" transform="translate(5111.669922 0)"/>
    <use xlink:href="#DejaVuSerif-6c" transform="translate(5171.875 0)"/>
    <use xlink:href="#DejaVuSerif-76" transform="translate(5203.857422 0)"/>
    <use xlink:href="#DejaVuSerif-65" transform="translate(5260.351562 0)"/>
    <use xlink:href="#DejaVuSerif-72" transform="translate(5319.53125 0)"/>
    <use xlink:href="#DejaVuSerif-73" transform="translate(5367.333984 0)"/>
    <use xlink:href="#DejaVuSerif-2e" transform="translate(5418.652344 0)"/>
    <use xlink:href="#DejaVuSerif-72" transform="translate(5450.439453 0)"/>
    <use xlink:href="#DejaVuSerif-73" transform="translate(5498.242188 0)"/>
    <use xlink:href="#DejaVuSerif-3a" transform="translate(5549.560547 0)"/>
    <use xlink:href="#DejaVuSerif-3a" transform="translate(5583.251953 0)"/>
    <use xlink:href="#DejaVuSerif-62" transform="translate(5616.943359 0)"/>
    <use xlink:href="#DejaVuSerif-65" transform="translate(5680.957031 0)"/>
    <use xlink:href="#DejaVuSerif-6e" transform="translate(5740.136719 0)"/>
    <use xlink:href="#DejaVuSerif-63" transform="translate(5804.541016 0)"/>
    <use xlink:href="#DejaVuSerif-68" transform="translate(5860.546875 0)"/>
    <use xlink:href="#DejaVuSerif-5f" transform="translate(5924.951172 0)"/>
    <use xlink:href="#DejaVuSerif-64" transform="translate(5974.951172 0)"/>
    <use xlink:href="#DejaVuSerif-65" transform="translate(6038.964844 0)"/>
    <use xlink:href="#DejaVuSerif-6e" transform="translate(6098.144531 0)"/>
    <use xlink:href="#DejaVuSerif-73" transform="translate(6162.548828 0)"/>
    <use xlink:href="#DejaVuSerif-65" transform="translate(6213.867188 0)"/>
    <use xlink:href="#DejaVuSerif-5f" transform="translate(6273.046875 0)"/>
    <use xlink:href="#DejaVuSerif-6f" transform="translate(6323.046875 0)"/>
    <use xlink:href="#DejaVuSerif-75" transform="translate(6383.251953 0)"/>
    <use xlink:href="#DejaVuSerif-74" transform="translate(6447.65625 0)"/>
    <use xlink:href="#DejaVuSerif-70" transform="translate(6487.841797 0)"/>
    <use xlink:href="#DejaVuSerif-75" transform="translate(6551.855469 0)"/>
    <use xlink:href="#DejaVuSerif-74" transform="translate(6616.259766 0)"/>
   </g>
  </g>
 </g>
 <defs>
  <clipPath id="p87757a149d">
   <rect x="60.410938" y="21.558281" width="334.8" height="181.44"/>
  </clipPath>
 </defs>
</svg>
